<mxfile host="app.diagrams.net" agent="Mozilla/5.0 (Windows NT 10.0; Win64; x64) AppleWebKit/537.36 (KHTML, like Gecko) Chrome/141.0.0.0 Safari/537.36" version="28.2.8">
  <diagram name="Page-1" id="M6xzAvkIdS-rGivdAH_g">
    <mxGraphModel dx="1389" dy="765" grid="0" gridSize="10" guides="1" tooltips="1" connect="1" arrows="1" fold="1" page="1" pageScale="1" pageWidth="850" pageHeight="1100" math="0" shadow="0">
      <root>
        <mxCell id="0" />
        <mxCell id="1" parent="0" />
        <mxCell id="N-gkE7z5c-s5zheIP97m-254" value="x" style="shape=umlLifeline;perimeter=lifelinePerimeter;whiteSpace=wrap;html=1;container=1;dropTarget=0;collapsible=0;recursiveResize=0;outlineConnect=0;portConstraint=eastwest;newEdgeStyle={&quot;curved&quot;:0,&quot;rounded&quot;:0};participant=umlActor;" vertex="1" parent="1">
          <mxGeometry x="113" y="114" width="20" height="600" as="geometry" />
        </mxCell>
        <mxCell id="N-gkE7z5c-s5zheIP97m-255" value="" style="html=1;points=[[0,0,0,0,5],[0,1,0,0,-5],[1,0,0,0,5],[1,1,0,0,-5]];perimeter=orthogonalPerimeter;outlineConnect=0;targetShapes=umlLifeline;portConstraint=eastwest;newEdgeStyle={&quot;curved&quot;:0,&quot;rounded&quot;:0};" vertex="1" parent="N-gkE7z5c-s5zheIP97m-254">
          <mxGeometry x="5" y="70" width="10" height="500" as="geometry" />
        </mxCell>
        <mxCell id="N-gkE7z5c-s5zheIP97m-256" value="Interface" style="shape=umlLifeline;perimeter=lifelinePerimeter;whiteSpace=wrap;html=1;container=1;dropTarget=0;collapsible=0;recursiveResize=0;outlineConnect=0;portConstraint=eastwest;newEdgeStyle={&quot;curved&quot;:0,&quot;rounded&quot;:0};" vertex="1" parent="1">
          <mxGeometry x="313" y="114" width="100" height="600" as="geometry" />
        </mxCell>
        <mxCell id="N-gkE7z5c-s5zheIP97m-257" value="" style="html=1;points=[[0,0,0,0,5],[0,1,0,0,-5],[1,0,0,0,5],[1,1,0,0,-5]];perimeter=orthogonalPerimeter;outlineConnect=0;targetShapes=umlLifeline;portConstraint=eastwest;newEdgeStyle={&quot;curved&quot;:0,&quot;rounded&quot;:0};" vertex="1" parent="N-gkE7z5c-s5zheIP97m-256">
          <mxGeometry x="45" y="70" width="10" height="500" as="geometry" />
        </mxCell>
        <mxCell id="N-gkE7z5c-s5zheIP97m-258" value="System" style="shape=umlLifeline;perimeter=lifelinePerimeter;whiteSpace=wrap;html=1;container=1;dropTarget=0;collapsible=0;recursiveResize=0;outlineConnect=0;portConstraint=eastwest;newEdgeStyle={&quot;curved&quot;:0,&quot;rounded&quot;:0};" vertex="1" parent="1">
          <mxGeometry x="563" y="114" width="100" height="600" as="geometry" />
        </mxCell>
        <mxCell id="N-gkE7z5c-s5zheIP97m-259" value="" style="html=1;points=[[0,0,0,0,5],[0,1,0,0,-5],[1,0,0,0,5],[1,1,0,0,-5]];perimeter=orthogonalPerimeter;outlineConnect=0;targetShapes=umlLifeline;portConstraint=eastwest;newEdgeStyle={&quot;curved&quot;:0,&quot;rounded&quot;:0};" vertex="1" parent="N-gkE7z5c-s5zheIP97m-258">
          <mxGeometry x="45" y="70" width="10" height="500" as="geometry" />
        </mxCell>
        <mxCell id="N-gkE7z5c-s5zheIP97m-275" value="" style="html=1;verticalAlign=bottom;labelBackgroundColor=none;endArrow=block;endFill=1;dashed=1;" edge="1" parent="1" source="N-gkE7z5c-s5zheIP97m-259" target="N-gkE7z5c-s5zheIP97m-257">
          <mxGeometry width="160" relative="1" as="geometry">
            <mxPoint x="603" y="524" as="sourcePoint" />
            <mxPoint x="383" y="524" as="targetPoint" />
            <Array as="points">
              <mxPoint x="538" y="524" />
            </Array>
          </mxGeometry>
        </mxCell>
        <mxCell id="N-gkE7z5c-s5zheIP97m-276" value="COD" style="edgeLabel;html=1;align=center;verticalAlign=middle;resizable=0;points=[];" vertex="1" connectable="0" parent="N-gkE7z5c-s5zheIP97m-275">
          <mxGeometry x="0.3706" y="2" relative="1" as="geometry">
            <mxPoint x="39" y="-2" as="offset" />
          </mxGeometry>
        </mxCell>
        <mxCell id="N-gkE7z5c-s5zheIP97m-281" value="yêu cầu thanh toán" style="html=1;verticalAlign=bottom;endArrow=block;curved=0;rounded=0;" edge="1" parent="1">
          <mxGeometry width="80" relative="1" as="geometry">
            <mxPoint x="368.0000000000002" y="248" as="sourcePoint" />
            <mxPoint x="608.0000000000002" y="248" as="targetPoint" />
            <Array as="points">
              <mxPoint x="483" y="248" />
            </Array>
          </mxGeometry>
        </mxCell>
        <mxCell id="N-gkE7z5c-s5zheIP97m-293" value="" style="rounded=0;whiteSpace=wrap;html=1;" vertex="1" parent="1">
          <mxGeometry x="614" y="280" width="13" height="37" as="geometry" />
        </mxCell>
        <mxCell id="N-gkE7z5c-s5zheIP97m-303" value="alt" style="shape=umlFrame;whiteSpace=wrap;html=1;pointerEvents=0;recursiveResize=0;container=1;collapsible=0;width=50;" vertex="1" parent="1">
          <mxGeometry x="68" y="208" width="670" height="430" as="geometry" />
        </mxCell>
        <mxCell id="N-gkE7z5c-s5zheIP97m-308" value="" style="html=1;verticalAlign=bottom;labelBackgroundColor=none;endArrow=block;endFill=1;dashed=1;" edge="1" parent="N-gkE7z5c-s5zheIP97m-303">
          <mxGeometry width="160" relative="1" as="geometry">
            <mxPoint x="295" y="131" as="sourcePoint" />
            <mxPoint x="65" y="131" as="targetPoint" />
            <Array as="points">
              <mxPoint x="240" y="131" />
            </Array>
          </mxGeometry>
        </mxCell>
        <mxCell id="N-gkE7z5c-s5zheIP97m-309" value="hiển thị thanh toán" style="edgeLabel;html=1;align=center;verticalAlign=middle;resizable=0;points=[];" vertex="1" connectable="0" parent="N-gkE7z5c-s5zheIP97m-308">
          <mxGeometry x="0.3706" y="2" relative="1" as="geometry">
            <mxPoint x="39" y="-2" as="offset" />
          </mxGeometry>
        </mxCell>
        <mxCell id="N-gkE7z5c-s5zheIP97m-319" value="" style="endArrow=classic;html=1;rounded=0;entryX=1;entryY=0.5;entryDx=0;entryDy=0;" edge="1" parent="1" source="N-gkE7z5c-s5zheIP97m-258" target="N-gkE7z5c-s5zheIP97m-293">
          <mxGeometry width="50" height="50" relative="1" as="geometry">
            <mxPoint x="668" y="231" as="sourcePoint" />
            <mxPoint x="671" y="384" as="targetPoint" />
            <Array as="points">
              <mxPoint x="664" y="270" />
              <mxPoint x="664" y="301" />
            </Array>
          </mxGeometry>
        </mxCell>
        <mxCell id="N-gkE7z5c-s5zheIP97m-320" value="điều kiện" style="text;html=1;whiteSpace=wrap;strokeColor=none;fillColor=none;align=center;verticalAlign=middle;rounded=0;" vertex="1" parent="1">
          <mxGeometry x="678" y="268" width="60" height="30" as="geometry" />
        </mxCell>
        <mxCell id="N-gkE7z5c-s5zheIP97m-321" value="" style="endArrow=classic;html=1;rounded=0;" edge="1" parent="1" source="N-gkE7z5c-s5zheIP97m-255" target="N-gkE7z5c-s5zheIP97m-256">
          <mxGeometry width="50" height="50" relative="1" as="geometry">
            <mxPoint x="414" y="303" as="sourcePoint" />
            <mxPoint x="353" y="248" as="targetPoint" />
            <Array as="points">
              <mxPoint x="252" y="231" />
            </Array>
          </mxGeometry>
        </mxCell>
        <mxCell id="N-gkE7z5c-s5zheIP97m-322" value="click thanh toán" style="text;html=1;whiteSpace=wrap;strokeColor=none;fillColor=none;align=center;verticalAlign=middle;rounded=0;" vertex="1" parent="1">
          <mxGeometry x="144" y="199" width="149" height="30" as="geometry" />
        </mxCell>
        <mxCell id="N-gkE7z5c-s5zheIP97m-323" value="" style="endArrow=classic;html=1;rounded=0;exitX=0;exitY=1;exitDx=0;exitDy=0;" edge="1" parent="1" source="N-gkE7z5c-s5zheIP97m-293" target="N-gkE7z5c-s5zheIP97m-256">
          <mxGeometry width="50" height="50" relative="1" as="geometry">
            <mxPoint x="417" y="286" as="sourcePoint" />
            <mxPoint x="467" y="236" as="targetPoint" />
          </mxGeometry>
        </mxCell>
        <mxCell id="N-gkE7z5c-s5zheIP97m-324" value="thanh toán bằng vnpay" style="text;html=1;whiteSpace=wrap;strokeColor=none;fillColor=none;align=center;verticalAlign=middle;rounded=0;" vertex="1" parent="1">
          <mxGeometry x="389" y="290" width="172" height="30" as="geometry" />
        </mxCell>
        <mxCell id="N-gkE7z5c-s5zheIP97m-376" value="" style="endArrow=none;dashed=1;html=1;rounded=0;entryX=0.995;entryY=0.424;entryDx=0;entryDy=0;entryPerimeter=0;" edge="1" parent="1" target="N-gkE7z5c-s5zheIP97m-303">
          <mxGeometry width="50" height="50" relative="1" as="geometry">
            <mxPoint x="63" y="414" as="sourcePoint" />
            <mxPoint x="675" y="439" as="targetPoint" />
          </mxGeometry>
        </mxCell>
        <mxCell id="N-gkE7z5c-s5zheIP97m-377" value="" style="endArrow=block;dashed=1;endFill=0;endSize=12;html=1;rounded=0;" edge="1" parent="1" target="N-gkE7z5c-s5zheIP97m-255">
          <mxGeometry width="160" relative="1" as="geometry">
            <mxPoint x="359" y="587" as="sourcePoint" />
            <mxPoint x="730" y="587" as="targetPoint" />
          </mxGeometry>
        </mxCell>
        <mxCell id="N-gkE7z5c-s5zheIP97m-378" value="xác nhận đơn hàng" style="text;html=1;whiteSpace=wrap;strokeColor=none;fillColor=none;align=center;verticalAlign=middle;rounded=0;" vertex="1" parent="1">
          <mxGeometry x="146" y="541" width="195" height="30" as="geometry" />
        </mxCell>
      </root>
    </mxGraphModel>
  </diagram>
</mxfile>
